<?xml version="1.0" encoding="UTF-8" standalone="no"?>
<!DOCTYPE svg PUBLIC "-//W3C//DTD SVG 1.1//EN" "http://www.w3.org/Graphics/SVG/1.1/DTD/svg11.dtd">
<svg version="1.1" xmlns="http://www.w3.org/2000/svg" xmlns:xlink="http://www.w3.org/1999/xlink" preserveAspectRatio="xMidYMid meet" viewBox="0 0 64 64" width="64" height="64"><defs><path d="M55.34 41.37L55.48 41.39L55.62 41.43L55.75 41.48L55.88 41.53L56.01 41.6L56.13 41.67L56.24 41.75L56.35 41.84L56.45 41.93L56.55 42.03L56.64 42.14L56.72 42.26L56.79 42.38L56.85 42.5L56.91 42.63L56.96 42.77L56.99 42.91L57.02 43.05L57.03 43.2L57.04 43.35L57.04 47.85L57.03 48L57.02 48.15L56.99 48.29L56.96 48.43L56.91 48.57L56.85 48.7L56.79 48.82L56.72 48.94L56.64 49.06L56.55 49.17L56.45 49.27L56.35 49.36L56.24 49.45L56.13 49.53L56.01 49.6L55.88 49.67L55.75 49.72L55.62 49.77L55.48 49.81L55.34 49.83L55.19 49.85L55.04 49.85L9.92 49.85L9.77 49.85L9.63 49.83L9.48 49.81L9.35 49.77L9.21 49.72L9.08 49.67L8.95 49.6L8.83 49.53L8.72 49.45L8.61 49.36L8.51 49.27L8.41 49.17L8.33 49.06L8.25 48.94L8.17 48.82L8.11 48.7L8.05 48.57L8.01 48.43L7.97 48.29L7.94 48.15L7.93 48L7.92 47.85L7.92 43.35L7.93 43.2L7.94 43.05L7.97 42.91L8.01 42.77L8.05 42.63L8.11 42.5L8.17 42.38L8.25 42.26L8.33 42.14L8.41 42.03L8.51 41.93L8.61 41.84L8.72 41.75L8.83 41.67L8.95 41.6L9.08 41.53L9.21 41.48L9.35 41.43L9.48 41.39L9.63 41.37L9.77 41.35L9.92 41.35L55.04 41.35L55.19 41.35L55.34 41.37ZM55.34 27.9L55.48 27.92L55.62 27.96L55.75 28.01L55.88 28.06L56.01 28.13L56.13 28.2L56.24 28.28L56.35 28.37L56.45 28.46L56.55 28.56L56.64 28.67L56.72 28.79L56.79 28.91L56.85 29.03L56.91 29.16L56.96 29.3L56.99 29.44L57.02 29.58L57.03 29.73L57.04 29.88L57.04 34.38L57.03 34.53L57.02 34.68L56.99 34.82L56.96 34.96L56.91 35.1L56.85 35.23L56.79 35.35L56.72 35.47L56.64 35.59L56.55 35.7L56.45 35.8L56.35 35.89L56.24 35.98L56.13 36.06L56.01 36.13L55.88 36.2L55.75 36.25L55.62 36.3L55.48 36.34L55.34 36.36L55.19 36.38L55.04 36.38L9.92 36.38L9.77 36.38L9.63 36.36L9.48 36.34L9.35 36.3L9.21 36.25L9.08 36.2L8.95 36.13L8.83 36.06L8.72 35.98L8.61 35.89L8.51 35.8L8.41 35.7L8.33 35.59L8.25 35.47L8.17 35.35L8.11 35.23L8.05 35.1L8.01 34.96L7.97 34.82L7.94 34.68L7.93 34.53L7.92 34.38L7.92 29.88L7.93 29.73L7.94 29.58L7.97 29.44L8.01 29.3L8.05 29.16L8.11 29.03L8.17 28.91L8.25 28.79L8.33 28.67L8.41 28.56L8.51 28.46L8.61 28.37L8.72 28.28L8.83 28.2L8.95 28.13L9.08 28.06L9.21 28.01L9.35 27.96L9.48 27.92L9.63 27.9L9.77 27.88L9.92 27.88L55.04 27.88L55.19 27.88L55.34 27.9ZM55.34 14.17L55.48 14.19L55.62 14.23L55.75 14.28L55.88 14.33L56.01 14.4L56.13 14.47L56.24 14.55L56.35 14.64L56.45 14.73L56.55 14.83L56.64 14.94L56.72 15.06L56.79 15.18L56.85 15.3L56.91 15.43L56.96 15.57L56.99 15.71L57.02 15.85L57.03 16L57.04 16.15L57.04 20.65L57.03 20.8L57.02 20.95L56.99 21.09L56.96 21.23L56.91 21.37L56.85 21.5L56.79 21.62L56.72 21.74L56.64 21.86L56.55 21.97L56.45 22.07L56.35 22.16L56.24 22.25L56.13 22.33L56.01 22.4L55.88 22.47L55.75 22.52L55.62 22.57L55.48 22.61L55.34 22.63L55.19 22.65L55.04 22.65L9.92 22.65L9.77 22.65L9.63 22.63L9.48 22.61L9.35 22.57L9.21 22.52L9.08 22.47L8.95 22.4L8.83 22.33L8.72 22.25L8.61 22.16L8.51 22.07L8.41 21.97L8.33 21.86L8.25 21.74L8.17 21.62L8.11 21.5L8.05 21.37L8.01 21.23L7.97 21.09L7.94 20.95L7.93 20.8L7.92 20.65L7.92 16.15L7.93 16L7.94 15.85L7.97 15.71L8.01 15.57L8.05 15.43L8.11 15.3L8.17 15.18L8.25 15.06L8.33 14.94L8.41 14.83L8.51 14.73L8.61 14.64L8.72 14.55L8.83 14.47L8.95 14.4L9.08 14.33L9.21 14.28L9.35 14.23L9.48 14.19L9.63 14.17L9.77 14.15L9.92 14.15L55.04 14.15L55.19 14.15L55.34 14.17Z" id="c7HbOipur"></path></defs><g><g><g><use xlink:href="#c7HbOipur" opacity="1" fill="#ffffff" fill-opacity="1"></use></g></g></g></svg>